<mxfile host="app.diagrams.net" agent="Mozilla/5.0 (Windows NT 10.0; Win64; x64) AppleWebKit/537.36 (KHTML, like Gecko) Chrome/127.0.0.0 Safari/537.36" version="24.7.7">
  <diagram id="C5RBs43oDa-KdzZeNtuy" name="Page-1">
    <mxGraphModel dx="463" dy="486" grid="1" gridSize="10" guides="1" tooltips="1" connect="1" arrows="1" fold="1" page="1" pageScale="1" pageWidth="827" pageHeight="1169" math="0" shadow="0">
      <root>
        <mxCell id="WIyWlLk6GJQsqaUBKTNV-0" />
        <mxCell id="WIyWlLk6GJQsqaUBKTNV-1" parent="WIyWlLk6GJQsqaUBKTNV-0" />
        <mxCell id="FkMAMc5dkUzOomXvQ9ln-2" value="" style="edgeStyle=orthogonalEdgeStyle;rounded=0;orthogonalLoop=1;jettySize=auto;html=1;fontColor=#FFFFFF;strokeColor=#FFFFFF;" edge="1" parent="WIyWlLk6GJQsqaUBKTNV-1" source="FkMAMc5dkUzOomXvQ9ln-0" target="FkMAMc5dkUzOomXvQ9ln-1">
          <mxGeometry relative="1" as="geometry" />
        </mxCell>
        <mxCell id="FkMAMc5dkUzOomXvQ9ln-0" value="start" style="ellipse;whiteSpace=wrap;html=1;strokeColor=#FFFFFF;fillColor=none;fontColor=#FFFFFF;" vertex="1" parent="WIyWlLk6GJQsqaUBKTNV-1">
          <mxGeometry x="240" y="162" width="80" height="40" as="geometry" />
        </mxCell>
        <mxCell id="FkMAMc5dkUzOomXvQ9ln-18" value="" style="edgeStyle=orthogonalEdgeStyle;rounded=0;orthogonalLoop=1;jettySize=auto;html=1;strokeColor=#FFFFFF;" edge="1" parent="WIyWlLk6GJQsqaUBKTNV-1" source="FkMAMc5dkUzOomXvQ9ln-1" target="FkMAMc5dkUzOomXvQ9ln-17">
          <mxGeometry relative="1" as="geometry" />
        </mxCell>
        <mxCell id="FkMAMc5dkUzOomXvQ9ln-1" value="input A, B, C" style="shape=parallelogram;perimeter=parallelogramPerimeter;whiteSpace=wrap;html=1;fixedSize=1;fillColor=none;strokeColor=#FFFFFF;fontColor=#FFFFFF;" vertex="1" parent="WIyWlLk6GJQsqaUBKTNV-1">
          <mxGeometry x="220" y="226" width="120" height="40" as="geometry" />
        </mxCell>
        <mxCell id="FkMAMc5dkUzOomXvQ9ln-20" value="" style="edgeStyle=orthogonalEdgeStyle;rounded=0;orthogonalLoop=1;jettySize=auto;html=1;exitX=1;exitY=0.5;exitDx=0;exitDy=0;strokeColor=#FFFFFF;fontColor=#FFFFFF;" edge="1" parent="WIyWlLk6GJQsqaUBKTNV-1" source="FkMAMc5dkUzOomXvQ9ln-17" target="FkMAMc5dkUzOomXvQ9ln-19">
          <mxGeometry relative="1" as="geometry">
            <mxPoint x="320" y="310" as="sourcePoint" />
            <Array as="points">
              <mxPoint x="430" y="310" />
            </Array>
          </mxGeometry>
        </mxCell>
        <mxCell id="FkMAMc5dkUzOomXvQ9ln-42" value="Yes" style="edgeLabel;html=1;align=center;verticalAlign=middle;resizable=0;points=[];fontColor=#FFFFFF;labelBackgroundColor=none;" vertex="1" connectable="0" parent="FkMAMc5dkUzOomXvQ9ln-20">
          <mxGeometry x="-0.181" relative="1" as="geometry">
            <mxPoint y="-7" as="offset" />
          </mxGeometry>
        </mxCell>
        <mxCell id="FkMAMc5dkUzOomXvQ9ln-22" value="" style="edgeStyle=orthogonalEdgeStyle;rounded=0;orthogonalLoop=1;jettySize=auto;html=1;exitX=0;exitY=0.5;exitDx=0;exitDy=0;fontColor=#ffffff;strokeColor=#FFFFFF;" edge="1" parent="WIyWlLk6GJQsqaUBKTNV-1" source="FkMAMc5dkUzOomXvQ9ln-17" target="FkMAMc5dkUzOomXvQ9ln-21">
          <mxGeometry relative="1" as="geometry">
            <mxPoint x="241" y="310" as="sourcePoint" />
            <Array as="points">
              <mxPoint x="131" y="310" />
            </Array>
          </mxGeometry>
        </mxCell>
        <mxCell id="FkMAMc5dkUzOomXvQ9ln-43" value="Yes" style="edgeLabel;html=1;align=center;verticalAlign=middle;resizable=0;points=[];fontColor=#FFFFFF;labelBackgroundColor=none;" vertex="1" connectable="0" parent="FkMAMc5dkUzOomXvQ9ln-22">
          <mxGeometry x="-0.1762" y="1" relative="1" as="geometry">
            <mxPoint y="-9" as="offset" />
          </mxGeometry>
        </mxCell>
        <mxCell id="FkMAMc5dkUzOomXvQ9ln-17" value="If A &amp;gt; B" style="rhombus;whiteSpace=wrap;html=1;fillColor=none;strokeColor=#FFFFFF;fontColor=#FFFFFF;" vertex="1" parent="WIyWlLk6GJQsqaUBKTNV-1">
          <mxGeometry x="230" y="290" width="100" height="40" as="geometry" />
        </mxCell>
        <mxCell id="FkMAMc5dkUzOomXvQ9ln-25" value="" style="edgeStyle=orthogonalEdgeStyle;rounded=0;orthogonalLoop=1;jettySize=auto;html=1;entryX=0.545;entryY=0;entryDx=0;entryDy=0;entryPerimeter=0;strokeColor=#FFFFFF;" edge="1" parent="WIyWlLk6GJQsqaUBKTNV-1" source="FkMAMc5dkUzOomXvQ9ln-19" target="FkMAMc5dkUzOomXvQ9ln-24">
          <mxGeometry relative="1" as="geometry" />
        </mxCell>
        <mxCell id="FkMAMc5dkUzOomXvQ9ln-41" value="Yes" style="edgeLabel;html=1;align=center;verticalAlign=middle;resizable=0;points=[];labelBackgroundColor=none;fontColor=#FFFFFF;" vertex="1" connectable="0" parent="FkMAMc5dkUzOomXvQ9ln-25">
          <mxGeometry x="-0.4733" y="1" relative="1" as="geometry">
            <mxPoint x="11" y="-1" as="offset" />
          </mxGeometry>
        </mxCell>
        <mxCell id="FkMAMc5dkUzOomXvQ9ln-19" value="If A &amp;gt; C" style="rhombus;whiteSpace=wrap;html=1;fillColor=none;strokeColor=#FFFFFF;fontColor=#FFFFFF;" vertex="1" parent="WIyWlLk6GJQsqaUBKTNV-1">
          <mxGeometry x="380" y="340" width="100" height="40" as="geometry" />
        </mxCell>
        <mxCell id="FkMAMc5dkUzOomXvQ9ln-27" value="" style="edgeStyle=orthogonalEdgeStyle;rounded=0;orthogonalLoop=1;jettySize=auto;html=1;strokeColor=#FFFFFF;" edge="1" parent="WIyWlLk6GJQsqaUBKTNV-1" source="FkMAMc5dkUzOomXvQ9ln-21" target="FkMAMc5dkUzOomXvQ9ln-26">
          <mxGeometry relative="1" as="geometry">
            <mxPoint x="131" y="372" as="sourcePoint" />
            <Array as="points" />
          </mxGeometry>
        </mxCell>
        <mxCell id="FkMAMc5dkUzOomXvQ9ln-40" value="Yes" style="edgeLabel;html=1;align=center;verticalAlign=middle;resizable=0;points=[];labelBackgroundColor=none;fontColor=#FFFFFF;" vertex="1" connectable="0" parent="FkMAMc5dkUzOomXvQ9ln-27">
          <mxGeometry x="0.04" y="-1" relative="1" as="geometry">
            <mxPoint x="-13" y="-1" as="offset" />
          </mxGeometry>
        </mxCell>
        <mxCell id="FkMAMc5dkUzOomXvQ9ln-21" value="If B &amp;gt; C" style="rhombus;whiteSpace=wrap;html=1;fillColor=none;strokeColor=#FFFFFF;fontColor=#FFFFFF;" vertex="1" parent="WIyWlLk6GJQsqaUBKTNV-1">
          <mxGeometry x="81" y="340" width="100" height="40" as="geometry" />
        </mxCell>
        <mxCell id="FkMAMc5dkUzOomXvQ9ln-23" value="" style="endArrow=none;html=1;rounded=0;exitX=1;exitY=0.5;exitDx=0;exitDy=0;entryX=0;entryY=0.5;entryDx=0;entryDy=0;strokeColor=#FFFFFF;" edge="1" parent="WIyWlLk6GJQsqaUBKTNV-1" source="FkMAMc5dkUzOomXvQ9ln-21" target="FkMAMc5dkUzOomXvQ9ln-19">
          <mxGeometry width="50" height="50" relative="1" as="geometry">
            <mxPoint x="230" y="370" as="sourcePoint" />
            <mxPoint x="280" y="320" as="targetPoint" />
          </mxGeometry>
        </mxCell>
        <mxCell id="FkMAMc5dkUzOomXvQ9ln-33" style="edgeStyle=orthogonalEdgeStyle;rounded=0;orthogonalLoop=1;jettySize=auto;html=1;exitX=0.5;exitY=1;exitDx=0;exitDy=0;strokeColor=#FFFFFF;" edge="1" parent="WIyWlLk6GJQsqaUBKTNV-1" source="FkMAMc5dkUzOomXvQ9ln-24" target="FkMAMc5dkUzOomXvQ9ln-31">
          <mxGeometry relative="1" as="geometry">
            <mxPoint x="430" y="425.0000000000001" as="sourcePoint" />
            <mxPoint x="310" y="485" as="targetPoint" />
            <Array as="points">
              <mxPoint x="430" y="442" />
              <mxPoint x="430" y="485" />
            </Array>
          </mxGeometry>
        </mxCell>
        <mxCell id="FkMAMc5dkUzOomXvQ9ln-24" value="Print A" style="shape=parallelogram;perimeter=parallelogramPerimeter;whiteSpace=wrap;html=1;fixedSize=1;fillColor=none;strokeColor=#FFFFFF;fontColor=#FFFFFF;" vertex="1" parent="WIyWlLk6GJQsqaUBKTNV-1">
          <mxGeometry x="370" y="412" width="110" height="30" as="geometry" />
        </mxCell>
        <mxCell id="FkMAMc5dkUzOomXvQ9ln-34" style="edgeStyle=orthogonalEdgeStyle;rounded=0;orthogonalLoop=1;jettySize=auto;html=1;strokeColor=#FFFFFF;" edge="1" parent="WIyWlLk6GJQsqaUBKTNV-1" source="FkMAMc5dkUzOomXvQ9ln-26" target="FkMAMc5dkUzOomXvQ9ln-31">
          <mxGeometry relative="1" as="geometry">
            <mxPoint x="131" y="425.0000000000001" as="sourcePoint" />
            <mxPoint x="251" y="485" as="targetPoint" />
            <Array as="points">
              <mxPoint x="131" y="485" />
            </Array>
          </mxGeometry>
        </mxCell>
        <mxCell id="FkMAMc5dkUzOomXvQ9ln-26" value="Print B" style="shape=parallelogram;perimeter=parallelogramPerimeter;whiteSpace=wrap;html=1;fixedSize=1;fillColor=none;strokeColor=#FFFFFF;fontColor=#FFFFFF;" vertex="1" parent="WIyWlLk6GJQsqaUBKTNV-1">
          <mxGeometry x="81" y="412" width="101" height="30" as="geometry" />
        </mxCell>
        <mxCell id="FkMAMc5dkUzOomXvQ9ln-32" style="edgeStyle=orthogonalEdgeStyle;rounded=0;orthogonalLoop=1;jettySize=auto;html=1;entryX=0.5;entryY=0;entryDx=0;entryDy=0;strokeColor=#FFFFFF;" edge="1" parent="WIyWlLk6GJQsqaUBKTNV-1" source="FkMAMc5dkUzOomXvQ9ln-29" target="FkMAMc5dkUzOomXvQ9ln-31">
          <mxGeometry relative="1" as="geometry">
            <mxPoint x="280" y="425.0000000000001" as="sourcePoint" />
          </mxGeometry>
        </mxCell>
        <mxCell id="FkMAMc5dkUzOomXvQ9ln-29" value="Print C" style="shape=parallelogram;perimeter=parallelogramPerimeter;whiteSpace=wrap;html=1;fixedSize=1;fillColor=none;strokeColor=#FFFFFF;fontColor=#FFFFFF;" vertex="1" parent="WIyWlLk6GJQsqaUBKTNV-1">
          <mxGeometry x="225" y="412" width="110" height="30" as="geometry" />
        </mxCell>
        <mxCell id="FkMAMc5dkUzOomXvQ9ln-31" value="stop" style="ellipse;whiteSpace=wrap;html=1;fillColor=none;strokeColor=#FFFFFF;fontColor=#FFFFFF;" vertex="1" parent="WIyWlLk6GJQsqaUBKTNV-1">
          <mxGeometry x="240" y="465" width="80" height="40" as="geometry" />
        </mxCell>
        <mxCell id="FkMAMc5dkUzOomXvQ9ln-35" value="" style="endArrow=classic;html=1;rounded=0;strokeColor=#FFFFFF;" edge="1" parent="WIyWlLk6GJQsqaUBKTNV-1" target="FkMAMc5dkUzOomXvQ9ln-29">
          <mxGeometry width="50" height="50" relative="1" as="geometry">
            <mxPoint x="280" y="360" as="sourcePoint" />
            <mxPoint x="300" y="310" as="targetPoint" />
          </mxGeometry>
        </mxCell>
        <mxCell id="FkMAMc5dkUzOomXvQ9ln-36" value="" style="endArrow=classic;html=1;rounded=0;strokeColor=#FFFFFF;" edge="1" parent="WIyWlLk6GJQsqaUBKTNV-1" source="FkMAMc5dkUzOomXvQ9ln-19">
          <mxGeometry width="50" height="50" relative="1" as="geometry">
            <mxPoint x="390" y="360" as="sourcePoint" />
            <mxPoint x="310" y="360" as="targetPoint" />
            <Array as="points">
              <mxPoint x="340" y="360" />
            </Array>
          </mxGeometry>
        </mxCell>
        <mxCell id="FkMAMc5dkUzOomXvQ9ln-38" value="No" style="edgeLabel;html=1;align=center;verticalAlign=middle;resizable=0;points=[];labelBackgroundColor=none;fontColor=#FFFFFF;" vertex="1" connectable="0" parent="FkMAMc5dkUzOomXvQ9ln-36">
          <mxGeometry x="0.0875" y="3" relative="1" as="geometry">
            <mxPoint x="3" y="-13" as="offset" />
          </mxGeometry>
        </mxCell>
        <mxCell id="FkMAMc5dkUzOomXvQ9ln-37" value="" style="endArrow=classic;html=1;rounded=0;exitX=1;exitY=0.5;exitDx=0;exitDy=0;strokeColor=#FFFFFF;" edge="1" parent="WIyWlLk6GJQsqaUBKTNV-1" source="FkMAMc5dkUzOomXvQ9ln-21">
          <mxGeometry width="50" height="50" relative="1" as="geometry">
            <mxPoint x="261" y="360" as="sourcePoint" />
            <mxPoint x="251" y="360" as="targetPoint" />
          </mxGeometry>
        </mxCell>
        <mxCell id="FkMAMc5dkUzOomXvQ9ln-39" value="No" style="edgeLabel;html=1;align=center;verticalAlign=middle;resizable=0;points=[];labelBackgroundColor=none;fontColor=#FFFFFF;" vertex="1" connectable="0" parent="FkMAMc5dkUzOomXvQ9ln-37">
          <mxGeometry x="-0.025" y="-2" relative="1" as="geometry">
            <mxPoint y="-12" as="offset" />
          </mxGeometry>
        </mxCell>
      </root>
    </mxGraphModel>
  </diagram>
</mxfile>
